<?xml version="1.0" encoding="UTF-8"?>
<!DOCTYPE svg PUBLIC "-//W3C//DTD SVG 1.1//EN" "http://www.w3.org/Graphics/SVG/1.1/DTD/svg11.dtd">
<svg version="1.1" id="Layer_1" xmlns="http://www.w3.org/2000/svg" xmlns:xlink="http://www.w3.org/1999/xlink" x="0px" y="0px" width="32px" height="32px" viewBox="0 0 32 32" enable-background="new 0 0 32 32" xml:space="preserve">
  <g id="main">
    <g id="icon">
      <path d="M0.5,21.5L16.03,21.5L16.21,21L16.59,20.21L17.04,19.47L17.56,18.78L18.14,18.14L18.78,17.56L19.47,17.04L20.21,16.59L21,16.21L21.83,15.91L22.69,15.68L23.58,15.55L24.5,15.5L25.65,15.57L26.76,15.79L27.82,16.14L28.82,16.61L29.74,17.19L30.5,17.81L30.5,3.5L0.5,3.5zz" fill="#FFFFFF"/>
      <path d="M0,3.5L0,21.5L0,22L0.5,22L15.86,22L15.91,21.83L16.21,21L1,21L1,4L30,4L30,17.4L30.59,17.88L31,18.31L31,3.5L31,3L30.5,3L0.5,3L0,3zz" fill="#17AB4F"/>
      <path d="M0.5,8.227L1.214,8.25L2.078,8.167L2.882,7.93L3.61,7.555L4.245,7.057L4.768,6.455L5.163,5.763L5.413,4.999L5.5,4.179L5.5,3.5L0.5,3.5zM25.5,4.179L25.59,5L25.84,5.764L26.23,6.455L26.76,7.058L27.39,7.555L28.12,7.93L28.92,8.167L29.79,8.25L30.5,8.227L30.5,3.5L25.5,3.5zM14.99,5.536L14.49,5.642L14.01,5.815L13.55,6.05L13.12,6.345L12.7,6.696L12.32,7.098L11.96,7.55L11.64,8.047L11.35,8.586L11.1,9.163L10.89,9.775L10.72,10.42L10.6,11.09L10.53,11.78L10.5,12.5L10.53,13.22L10.6,13.91L10.72,14.58L10.89,15.22L11.1,15.84L11.35,16.41L11.64,16.95L11.96,17.45L12.32,17.9L12.7,18.3L13.12,18.66L13.55,18.95L14.01,19.19L14.49,19.36L14.99,19.46L15.5,19.5L16.01,19.46L16.51,19.36L16.99,19.19L17.42,18.96L17.56,18.78L18.14,18.14L18.78,17.56L19.14,17.29L19.36,16.95L19.65,16.41L19.9,15.84L20.11,15.22L20.28,14.58L20.4,13.91L20.47,13.22L20.5,12.5L20.47,11.78L20.4,11.09L20.28,10.42L20.11,9.775L19.9,9.163L19.65,8.586L19.36,8.047L19.04,7.55L18.68,7.098L18.3,6.696L17.88,6.345L17.45,6.05L16.99,5.815L16.51,5.642L16.01,5.536L15.5,5.5zM6.111,11.58L5.793,11.79L5.579,12.11L5.5,12.5L5.579,12.89L5.793,13.21L6.111,13.42L6.5,13.5L6.889,13.42L7.207,13.21L7.421,12.89L7.5,12.5L7.421,12.11L7.207,11.79L6.889,11.58L6.5,11.5zM24.11,11.58L23.79,11.79L23.58,12.11L23.5,12.5L23.58,12.89L23.79,13.21L24.11,13.42L24.5,13.5L24.89,13.42L25.21,13.21L25.42,12.89L25.5,12.5L25.42,12.11L25.21,11.79L24.89,11.58L24.5,11.5zM0.5,16.77L0.5,21.5L5.5,21.5L5.5,20.82L5.413,20L5.163,19.24L4.768,18.54L4.245,17.94L3.61,17.45L2.882,17.07L2.078,16.83L1.214,16.75zM29.14,16.81L29.74,17.19L30.5,17.81L30.5,16.75L29.79,16.75zz" fill="#ACD8B1"/>
      <path d="M0,3.5L0,8.227L0,8.711L0.484,8.727L1.198,8.75L1.23,8.751L1.262,8.748L2.125,8.665L2.173,8.66L2.219,8.647L3.024,8.41L3.069,8.396L3.111,8.374L3.839,7.999L3.881,7.977L3.919,7.948L4.553,7.451L4.591,7.421L4.622,7.385L5.146,6.783L5.178,6.746L5.202,6.703L5.597,6.012L5.623,5.967L5.638,5.919L5.888,5.155L5.904,5.104L5.91,5.052L5.997,4.232L6,4.205L6,4.179L6,3.5L6,3L5.5,3L0.5,3L0,3zM25,3.5L25,4.179L25,4.205L25,4.232L25.09,5.052L25.1,5.105L25.11,5.155L25.36,5.919L25.38,5.968L25.4,6.012L25.8,6.704L25.82,6.746L25.85,6.783L26.38,7.386L26.41,7.422L26.45,7.451L27.08,7.948L27.12,7.978L27.16,7.999L27.89,8.375L27.93,8.396L27.98,8.41L28.78,8.647L28.83,8.661L28.87,8.665L29.74,8.748L29.77,8.751L29.8,8.75L30.52,8.727L31,8.711L31,8.227L31,3.5L31,3L30.5,3L25.5,3L25,3zM5,4L5,4.152L4.921,4.895L4.704,5.56L4.358,6.164L3.899,6.693L3.339,7.132L2.695,7.464L1.982,7.674L1.199,7.749L1,7.743L1,4zM30,4L30,7.743L29.8,7.749L29.02,7.674L28.3,7.464L27.66,7.132L27.1,6.694L26.64,6.165L26.3,5.56L26.08,4.895L26,4.152L26,4zM15.46,5.001L14.95,5.037L14.92,5.04L14.88,5.047L14.39,5.153L14.35,5.16L14.32,5.172L13.84,5.344L13.81,5.355L13.79,5.37L13.33,5.605L13.3,5.619L13.27,5.636L12.84,5.93L12.81,5.946L12.79,5.964L12.38,6.315L12.36,6.331L12.34,6.35L11.96,6.753L11.94,6.771L11.93,6.789L11.57,7.241L11.56,7.259L11.55,7.278L11.22,7.775L11.21,7.793L11.2,7.812L10.91,8.351L10.9,8.369L10.9,8.387L10.64,8.964L10.64,8.982L10.63,9.001L10.42,9.613L10.41,9.63L10.41,9.649L10.24,10.29L10.24,10.31L10.23,10.33L10.11,11L10.11,11.02L10.1,11.04L10.03,11.73L10.03,11.75L10.03,11.77L10,12.48L10,12.5L10,12.52L10.03,13.23L10.03,13.25L10.03,13.27L10.1,13.96L10.11,13.98L10.11,14L10.23,14.67L10.24,14.69L10.24,14.71L10.41,15.35L10.41,15.37L10.42,15.39L10.63,16L10.64,16.02L10.64,16.04L10.9,16.61L10.9,16.63L10.91,16.65L11.2,17.19L11.21,17.21L11.22,17.23L11.55,17.72L11.56,17.74L11.57,17.76L11.93,18.21L11.94,18.23L11.96,18.25L12.34,18.65L12.36,18.67L12.38,18.69L12.79,19.04L12.81,19.05L12.84,19.07L13.27,19.36L13.3,19.38L13.33,19.39L13.79,19.63L13.81,19.64L13.84,19.66L14.32,19.83L14.35,19.84L14.39,19.85L14.88,19.95L14.92,19.96L14.95,19.96L15.46,20L15.5,20L15.54,20L16.05,19.96L16.08,19.96L16.12,19.95L16.61,19.85L16.65,19.84L16.68,19.83L16.86,19.76L17.04,19.47L17.56,18.78L18.14,18.14L18.78,17.56L19.47,17.04L20.07,16.67L20.09,16.65L20.1,16.63L20.1,16.61L20.36,16.04L20.36,16.02L20.37,16L20.58,15.39L20.59,15.37L20.59,15.35L20.76,14.71L20.76,14.69L20.77,14.67L20.89,14L20.89,13.98L20.9,13.96L20.97,13.27L20.97,13.25L20.97,13.23L21,12.52L21,12.5L21,12.48L20.97,11.77L20.97,11.75L20.97,11.73L20.9,11.04L20.89,11.02L20.89,11L20.77,10.33L20.76,10.31L20.76,10.29L20.59,9.649L20.59,9.63L20.58,9.613L20.37,9.001L20.36,8.982L20.36,8.964L20.1,8.387L20.1,8.369L20.09,8.351L19.8,7.812L19.79,7.793L19.78,7.775L19.45,7.278L19.44,7.259L19.43,7.241L19.07,6.789L19.06,6.771L19.04,6.753L18.66,6.35L18.64,6.331L18.62,6.315L18.21,5.964L18.19,5.946L18.16,5.93L17.73,5.636L17.7,5.619L17.67,5.605L17.21,5.37L17.19,5.355L17.16,5.344L16.68,5.172L16.65,5.16L16.61,5.153L16.12,5.047L16.08,5.04L16.05,5.037L15.54,5.001L15.5,4.999zM15.94,6.032L16.37,6.124L16.79,6.274L17.19,6.481L17.58,6.744L17.95,7.059L18.3,7.426L18.63,7.842L18.93,8.301L19.2,8.805L19.43,9.345L19.63,9.92L19.79,10.53L19.9,11.16L19.98,11.82L20,12.5L19.98,13.18L19.9,13.84L19.79,14.47L19.63,15.08L19.43,15.65L19.2,16.2L18.93,16.7L18.63,17.16L18.3,17.57L17.95,17.94L17.58,18.26L17.19,18.52L16.79,18.73L16.37,18.88L15.94,18.97L15.5,19L15.06,18.97L14.63,18.88L14.21,18.73L13.81,18.52L13.42,18.26L13.05,17.94L12.7,17.57L12.37,17.16L12.07,16.7L11.8,16.2L11.57,15.65L11.37,15.08L11.21,14.47L11.1,13.84L11.03,13.18L11,12.5L11.03,11.82L11.1,11.16L11.21,10.53L11.37,9.92L11.57,9.345L11.8,8.805L12.07,8.301L12.37,7.842L12.7,7.426L13.05,7.059L13.42,6.744L13.81,6.481L14.21,6.274L14.63,6.124L15.06,6.032L15.5,6.001zM6.401,11.01L6.012,11.09L5.914,11.11L5.831,11.16L5.513,11.38L5.433,11.43L5.379,11.51L5.164,11.83L5.108,11.91L5.088,12.01L5.01,12.4L4.99,12.5L5.01,12.6L5.088,12.99L5.108,13.09L5.164,13.17L5.379,13.49L5.433,13.57L5.513,13.62L5.831,13.84L5.914,13.89L6.012,13.91L6.401,13.99L6.5,14.01L6.599,13.99L6.988,13.91L7.086,13.89L7.169,13.84L7.487,13.62L7.567,13.57L7.621,13.49L7.836,13.17L7.892,13.09L7.912,12.99L7.99,12.6L8.01,12.5L7.99,12.4L7.912,12.01L7.892,11.91L7.836,11.83L7.621,11.51L7.567,11.43L7.487,11.38L7.169,11.16L7.086,11.11L6.988,11.09L6.599,11.01L6.5,10.99zM24.4,11.01L24.01,11.09L23.91,11.11L23.83,11.16L23.51,11.38L23.43,11.43L23.38,11.51L23.16,11.83L23.11,11.91L23.09,12.01L23.01,12.4L22.99,12.5L23.01,12.6L23.09,12.99L23.11,13.09L23.16,13.17L23.38,13.49L23.43,13.57L23.51,13.62L23.83,13.84L23.91,13.89L24.01,13.91L24.4,13.99L24.5,14.01L24.6,13.99L24.99,13.91L25.09,13.89L25.17,13.84L25.49,13.62L25.57,13.57L25.62,13.49L25.84,13.17L25.89,13.09L25.91,12.99L25.99,12.6L26.01,12.5L25.99,12.4L25.91,12.01L25.89,11.91L25.84,11.83L25.62,11.51L25.57,11.43L25.49,11.38L25.17,11.16L25.09,11.11L24.99,11.09L24.6,11.01L24.5,10.99zM6.692,12.05L6.847,12.15L6.951,12.31L6.99,12.5L6.951,12.69L6.847,12.85L6.692,12.95L6.5,12.99L6.308,12.95L6.153,12.85L6.049,12.69L6.01,12.5L6.049,12.31L6.153,12.15L6.308,12.05L6.5,12.01zM24.69,12.05L24.85,12.15L24.95,12.31L24.99,12.5L24.95,12.69L24.85,12.85L24.69,12.95L24.5,12.99L24.31,12.95L24.15,12.85L24.05,12.69L24.01,12.5L24.05,12.31L24.15,12.15L24.31,12.05L24.5,12.01zM1.198,16.25L0.484,16.27L0,16.29L0,16.77L0,21.5L0,22L0.5,22L5.5,22L6,22L6,21.5L6,20.82L6,20.79L5.997,20.77L5.91,19.95L5.904,19.9L5.888,19.85L5.638,19.08L5.623,19.03L5.597,18.99L5.202,18.3L5.178,18.25L5.146,18.22L4.622,17.61L4.591,17.58L4.553,17.55L3.919,17.05L3.881,17.02L3.839,17L3.111,16.63L3.069,16.6L3.024,16.59L2.219,16.35L2.173,16.34L2.125,16.33L1.262,16.25L1.23,16.25zM29.74,16.25L28.87,16.33L28.83,16.34L28.78,16.35L28.47,16.44L28.82,16.61L29.74,17.19L29.82,17.25L30,17.25L30,17.4L30.59,17.88L31,18.31L31,16.75L31,16.25L30.5,16.25L29.79,16.25L29.76,16.25zM1.982,17.33L2.695,17.54L3.339,17.87L3.898,18.31L4.358,18.83L4.704,19.44L4.921,20.11L5,20.85L5,21L1,21L1,17.26L1.199,17.25zz" fill="#0BA04A"/>
    </g>
    <g id="overlay">
      <path d="M24.5,17.5c-3.866,0,-7,3.134,-7,7c0,3.866,3.134,7,7,7s7,-3.134,7,-7C31.5,20.634,28.366,17.5,24.5,17.5zM29,25.1h-9v-1.2h9V25.1z" fill="#F7BFBF"/>
      <path d="M24.5,17.5c-3.866,0,-7,3.134,-7,7c0,3.866,3.134,7,7,7s7,-3.134,7,-7C31.5,20.634,28.366,17.5,24.5,17.5zM29,25.1h-9v-1.2h9V25.1z" fill="#DB2E2A" opacity="0.3"/>
      <path d="M24.5,32c-4.135,0,-7.5,-3.365,-7.5,-7.5s3.365,-7.5,7.5,-7.5s7.5,3.365,7.5,7.5S28.635,32,24.5,32zM24.5,18c-3.584,0,-6.5,2.916,-6.5,6.5s2.916,6.5,6.5,6.5s6.5,-2.916,6.5,-6.5S28.084,18,24.5,18z" fill="#DB2E2A"/>
      <rect x="20" y="23.9" width="9" height="1.2" fill="#FFFFFF"/>
    </g>
  </g>
</svg>
