<?xml version="1.0" encoding="UTF-8"?>
<!DOCTYPE svg PUBLIC "-//W3C//DTD SVG 1.1//EN" "http://www.w3.org/Graphics/SVG/1.1/DTD/svg11.dtd">
<svg version="1.1" id="Layer_1" xmlns="http://www.w3.org/2000/svg" xmlns:xlink="http://www.w3.org/1999/xlink" x="0px" y="0px" width="32px" height="32px" viewBox="0 0 32 32" enable-background="new 0 0 32 32" xml:space="preserve">
  <g id="icon">
    <path d="M18.162,12.729c0,3.44,-2.781,6.229,-6.211,6.229S5.74,16.169,5.74,12.729S8.521,6.5,11.951,6.5S18.162,9.289,18.162,12.729zM22.3,31c0,-6.014,-4.753,-12,-10.309,-12S1.6,24.986,1.6,31" fill="#FFFFFF" stroke="#228BCB" stroke-width="1.2" stroke-miterlimit="10"/>
    <path d="M20.142,14C25.725,14,30.5,19.986,30.5,26h-7.119c-0.607,-1.639,-1.499,-3.192,-2.636,-4.543c-0.939,-1.116,-2.007,-2.049,-3.162,-2.769c1.304,-1.239,2.178,-2.883,2.46,-4.687C20.076,14.001,20.109,14,20.142,14zM20.142,12.729c0,0.415,-0.032,0.825,-0.093,1.227c0.017,0,0.035,0.001,0.052,0.001c3.447,0,6.241,-2.789,6.241,-6.229c0,-3.44,-2.794,-6.229,-6.241,-6.229c-2.438,0,-4.548,1.396,-5.575,3.431C17.786,6.028,20.142,9.108,20.142,12.729z" fill="#FFFFFF"/>
    <path d="M29.837,26.1v-0.1c0,-2.766,-1.069,-5.622,-2.933,-7.838c-1.881,-2.235,-4.354,-3.517,-6.787,-3.517c-0.064,0,-0.128,0.001,-0.192,0.003l-0.127,0.003l0.027,-0.125c0.074,-0.335,0.127,-0.681,0.158,-1.029l0.008,-0.091l0.091,0c3.095,-0.003,5.612,-2.518,5.612,-5.606c0,-3.091,-2.52,-5.606,-5.618,-5.606c-2.107,0,-4.02,1.165,-4.992,3.04l-0.042,0.081l-0.084,-0.034c-0.308,-0.125,-0.625,-0.232,-0.943,-0.317l-0.117,-0.031l0.053,-0.109C15.09,2.501,17.494,1,20.076,1c3.757,0,6.813,3.051,6.813,6.802c0,2.638,-1.524,5.025,-3.903,6.149c1.796,0.628,3.462,1.814,4.831,3.442c2.042,2.427,3.214,5.565,3.214,8.607v0.1H29.837z" fill="#238BCB"/>
  </g>
</svg>
