<?xml version="1.0" encoding="UTF-8"?>
<!DOCTYPE svg PUBLIC "-//W3C//DTD SVG 1.1//EN" "http://www.w3.org/Graphics/SVG/1.1/DTD/svg11.dtd">
<svg version="1.1" id="Layer_1" xmlns="http://www.w3.org/2000/svg" xmlns:xlink="http://www.w3.org/1999/xlink" x="0px" y="0px" width="32px" height="32px" viewBox="0 0 32 32" enable-background="new 0 0 32 32" xml:space="preserve">
  <g id="icon">
    <path d="M23.5,29.5V8.5H1.5v21H23.5z" fill="#F7DA8E" stroke="#E57428" stroke-width="1" stroke-linecap="round" stroke-miterlimit="10"/>
    <rect x="10.5" y="8.5" width="4" height="8" fill="#C8C6C4" stroke="#383838" stroke-width="1" stroke-linecap="round" stroke-miterlimit="10"/>
    <path d="M4.5,27v-6M6.5,26v-5M8.5,26v-5M10.5,26v-5M12.5,27v-6" fill="#FFFFFF" stroke="#383838" stroke-width="1" stroke-miterlimit="10"/>
    <polygon points="8.5,2.5 8.5,7 25,7 25,23.5 30.5,23.5 30.5,2.5" fill="#F7DA8E" stroke-linejoin="miter"/>
    <polygon points="8,2 8,7 9,7 9,3 30,3 30,23 25,23 25,24 31,24 31,2" fill="#E57428" stroke-linejoin="miter"/>
    <polygon points="18,3 21,3 21,7 22,7 22,2 17,2 17,7 18,7" fill="#383838" stroke-linejoin="miter"/>
    <rect x="18" y="3" width="3" height="4" fill="#C8C6C4"/>
  </g>
</svg>
