<?xml version="1.0" encoding="UTF-8"?>
<!DOCTYPE svg PUBLIC "-//W3C//DTD SVG 1.1//EN" "http://www.w3.org/Graphics/SVG/1.1/DTD/svg11.dtd">
<svg version="1.1" id="Layer_1" xmlns="http://www.w3.org/2000/svg" xmlns:xlink="http://www.w3.org/1999/xlink" x="0px" y="0px" width="32px" height="32px" viewBox="0 0 32 32" enable-background="new 0 0 32 32" xml:space="preserve">
  <g id="icon">
    <path d="M18.099,12.803c0,3.426,-2.787,6.203,-6.224,6.203S5.65,16.229,5.65,12.803S8.436,6.6,11.874,6.6S18.099,9.377,18.099,12.803zM22.246,31c0,-5.989,-4.763,-11.951,-10.332,-11.951S1.5,25.011,1.5,31" fill="#FFFFFF" stroke="#383838" stroke-width="1.2" stroke-miterlimit="10"/>
    <polygon points="13.119,31 10.629,31 11.252,23.23 10.629,21.041 13.119,21.041 12.497,23.254" fill="#EF3E3B" stroke-linejoin="miter"/>
    <path d="M12.662,31l0.025,-0.121c0.175,-0.831,1.758,-8.19,3.375,-10.733l0.054,-0.084l0.88,0.559l-0.054,0.084c-1.423,2.237,-2.913,8.902,-3.197,10.215l-0.017,0.079H12.662zM10.002,31l-0.017,-0.079c-0.283,-1.313,-1.769,-7.973,-3.19,-10.198l-0.054,-0.084l0.878,-0.561l0.054,0.084c1.618,2.532,3.195,9.887,3.369,10.718l0.025,0.121H10.002z" fill="#383838"/>
    <path d="M20.115,14.049c5.569,0,10.332,5.962,10.332,11.951h-7.391c-0.594,-1.568,-1.457,-3.053,-2.549,-4.349c-0.994,-1.179,-2.136,-2.15,-3.373,-2.874c1.385,-1.216,2.318,-2.885,2.613,-4.718C19.87,14.053,19.992,14.049,20.115,14.049zM19.849,12.803c0,0.404,-0.032,0.803,-0.092,1.195c0.105,0.005,0.211,0.008,0.317,0.008c3.438,0,6.224,-2.777,6.224,-6.203S23.512,1.6,20.074,1.6c-2.528,0,-4.702,1.503,-5.677,3.66C17.561,6.316,19.849,9.297,19.849,12.803z" fill="#FFFFFF"/>
    <path d="M27.789,17.424c-1.404,-1.666,-3.118,-2.858,-4.929,-3.465c2.35,-1.061,3.988,-3.421,3.988,-6.155c0,-3.724,-3.039,-6.753,-6.774,-6.753c-2.772,0,-5.159,1.669,-6.207,4.052c0.36,0.093,0.71,0.211,1.048,0.351c0.897,-1.947,2.871,-3.303,5.159,-3.303c3.129,0,5.674,2.536,5.674,5.653s-2.546,5.653,-5.674,5.653c-0.085,0,-0.168,-0.003,-0.252,-0.006c-0.033,0.395,-0.095,0.784,-0.185,1.165c0.159,-0.011,0.319,-0.016,0.478,-0.016c2.45,0,4.941,1.288,6.833,3.534c1.874,2.224,2.948,5.091,2.948,7.867h1.1C30.996,22.969,29.827,19.843,27.789,17.424z" fill="#383838"/>
    <path d="M19.154,16.041c-0.064,0.143,-0.132,0.284,-0.204,0.423l0.502,1.767l-0.171,2.139c0.429,0.394,0.839,0.821,1.227,1.281c0.178,0.211,0.349,0.428,0.515,0.649l-0.325,-4.045l0.622,-2.213H19.154z" fill="#EF3E3B"/>
    <path d="M24.315,15.062l-0.054,0.084c-1.044,1.641,-2.073,5.29,-2.719,7.894c0.276,0.418,0.531,0.849,0.763,1.291c0.591,-2.501,1.734,-6.892,2.836,-8.626l0.054,-0.084L24.315,15.062z" fill="#383838"/>
  </g>
</svg>
